# xmcd
#
# Track frame offsets:
#	150
#	22355
#	39595
#	56725
#	74772
#	93355
#	109235
#	125077
#	142665
#	158837
#	177210
#	192910
#
# Disc length: 2786 seconds
#
# Revision: 8
# Processed by: cddbd v1.5.2PL0 Copyright (c) Steve Scherf et al.
# Submitted via: audiograbber 1.83.01
#
DISCID=b00ae00c
DTITLE=Ricky Martin - Life
DYEAR=2005
DGENRE=Latin Pop
TTITLE0=Ricky Martin - Til I Get To You
TTITLE1=Ricky Martin - I Won't Desert You
TTITLE2=Ricky Martin feat. Fat Joe and Amerie - I Don't Care
TTITLE3=Ricky Martin - Stop Time Tonight
TTITLE4=Ricky Martin - Life
TTITLE5=Ricky Martin feat. Voltio - I Am
TTITLE6=Ricky Martin - It's Alright
TTITLE7=Ricky Martin feat. Daddy Yankee - Drop It On Me
TTITLE8=Ricky Martin - This Is Good
TTITLE9=Ricky Martin - Save The Dance
TTITLE10=Ricky Martin - Que Mas Da (I Don't Care) (Luny Tunes Reggaeton Mix)
TTITLE11=Ricky Martin - Dejate Llevar (It's Alright - Spanish)
EXTD=YEAR: 2005\n\nMARO\n
EXTT0=
EXTT1=
EXTT2=
EXTT3=
EXTT4=
EXTT5=
EXTT6=
EXTT7=
EXTT8=
EXTT9=
EXTT10=
EXTT11=
PLAYORDER=
